<mxfile host="app.diagrams.net" agent="Mozilla/5.0 (Macintosh; Intel Mac OS X 10_15_7) AppleWebKit/537.36 (KHTML, like Gecko) Chrome/137.0.0.0 Safari/537.36" version="27.1.6">
  <diagram name="Page-1" id="XMGKeJgbQcsa0SMa9_mi">
    <mxGraphModel dx="2084" dy="1924" grid="0" gridSize="10" guides="1" tooltips="1" connect="1" arrows="1" fold="1" page="1" pageScale="1" pageWidth="850" pageHeight="1100" math="0" shadow="0">
      <root>
        <mxCell id="0" />
        <mxCell id="1" parent="0" />
        <mxCell id="Aw4LAdJU4ZUVSzUaRyW1-33" value="" style="rounded=1;whiteSpace=wrap;html=1;fillColor=#fff2cc;strokeColor=#d6b656;strokeWidth=2;dashed=1;dashPattern=8 8;" vertex="1" parent="1">
          <mxGeometry x="53" y="25" width="291" height="657" as="geometry" />
        </mxCell>
        <mxCell id="Aw4LAdJU4ZUVSzUaRyW1-17" value="" style="rounded=1;whiteSpace=wrap;html=1;strokeWidth=2;" vertex="1" parent="1">
          <mxGeometry x="108.75" y="552" width="181" height="71" as="geometry" />
        </mxCell>
        <mxCell id="Aw4LAdJU4ZUVSzUaRyW1-11" value="" style="rounded=1;whiteSpace=wrap;html=1;strokeWidth=2;" vertex="1" parent="1">
          <mxGeometry x="145" y="339" width="115" height="64" as="geometry" />
        </mxCell>
        <mxCell id="Aw4LAdJU4ZUVSzUaRyW1-6" value="" style="rounded=1;whiteSpace=wrap;html=1;strokeWidth=2;" vertex="1" parent="1">
          <mxGeometry x="121.25" y="129" width="156" height="81" as="geometry" />
        </mxCell>
        <mxCell id="Aw4LAdJU4ZUVSzUaRyW1-1" value="" style="rounded=1;whiteSpace=wrap;html=1;strokeWidth=2;" vertex="1" parent="1">
          <mxGeometry x="120" y="436" width="163" height="81" as="geometry" />
        </mxCell>
        <mxCell id="Aw4LAdJU4ZUVSzUaRyW1-2" value="" style="shape=image;verticalLabelPosition=bottom;labelBackgroundColor=default;verticalAlign=top;aspect=fixed;imageAspect=0;image=data:image/png,iVBORw0KGgoAAAANSUhEUgAAAMgAAADICAYAAACtWK6eAAAAAXNSR0IArs4c6QAAAERlWElmTU0AKgAAAAgAAYdpAAQAAAABAAAAGgAAAAAAA6ABAAMAAAABAAEAAKACAAQAAAABAAAAyKADAAQAAAABAAAAyAAAAACbWz2VAAAJ40lEQVR4Ae2dQXLTShRF5RQDGLIFBrAM/EMYwi7YAfOEOTtgFzClwv9LYAgLgCFDGEXfz6FditLdaskt66r7pCoVW2q1rs57x5LsEJqGLwhAAAIQgAAEIAABCEAAAhCAAAQgAAEIQAACEIAABCAAAQhAAAIQgAAEIAABCEAAAhCAAAQgMCOBzYxzZ526vbjY7ie8udk2m83zpm1vn2fdS7GTvdtcX18Ve3QzHtgqBGlfvPiCEEd3AZJMQCgtyP6scXPzZcJxsYmfAJL4uQSXngXXLLyiPT+/apAjdxUu91xzz1rwfJJnEM4cs3ccZ5JExJpnkLa9TMzPsGkEOJMkcpMTZH8JwDtUieU7ahiSJOB7kDDmtENu38L17/PRI/9ylt4l8Pv33efhZyZJw1vAYUBy9yC7grXBuE+eBFexokPg58+mSZfENuSepIOv+1DqEuvwYWA3IY9PQYDLrQBlKUF2b+tuAzlZPD8BJPEw1hLEE5BFJyWAJD3cCNIDwtMGSTpNgCAdGDw8EECSvygQ5NATPOgRQJIdEATpdQVP7xCoXhIEudMPPPEQqFoSBPF0BIvuEahWEgS51wssCBCoUhIECXQDi70EqpMEQbx9wMIIgaokQZBIJ7AqSOCylt+bQ5BgD7AiSmD3z6FrkARBol3AyiiBCiRBkGgHsHKQQOGSIMhgBzBgkEDBkiDIYPUZkESgUEkQJKn6DEoiUKAkCJJUeQYlEyhMEgRJrjwDkwkUJAmCJFedgaMIFCIJgoyqOoNHEShAEgQZVXEGjyawckkQZHTF2WA0gRVLgiCjq80GkwisVBIEmVRtNppEYIV/tR9BJlWajSYR2P3V/v1/pzdp42U2QpBluNe715VJgiD1tupyR74iSRBkuTape88rkQRB6m7TZY9+BZIgyLItwt7FJUEQWnR5AsKSIMjy7UECIyAqCYLQnjoETJKLi61OIP66u1ItyCJIgDOIYFGIpEMAQXRqQRJBAggiWBQi6RBAEJ1akESQwAPBTEQ6lsDDh01j36pfv36pJruXC0HuISlgwePHugfx50/TrEgQLrF0W4lkAgQQRKAIRNAlgCC6tSGZAAEEESgCEXQJIIhubUgmQABBBIpABF0CCKJbG5IJEEAQgSIQQZcAgujWhmQCBBBEoAhE0CWAILq1IZkAAQQRKAIRdAkgiG5tSCZAAEEEikAEXQIIolsbkgkQQBCBIhBBlwCC6NaGZAIEEESgCETQJYAgurUhmQABBBEoAhF0CSCIbm1IJkAAQQSKQARdAgiiWxuSCRBAEIEiEEGXAILo1oZkAgQQRKAIRNAlgCC6tSGZAAEEESgCEXQJIIhubUgmQABBBIpABF0CCKJbG5IJEEAQgSIQQZcAgujWhmQCBBBEoAhE0CWAILq1IZkAAQQRKAIRdAkgiG5tSCZAAEEEikAEXQIIolsbkgkQQBCBIhBBlwCC6NaGZAIEEESgCETQJYAgurUhmQABBBEoAhF0CSCIbm1IJkAAQQSKQARdAgiiWxuSCRBAEIEiEEGXAILo1oZkAgQQRKAIRNAlgCC6tSGZAAEEESgCEXQJIIhubUgmQABBBIpABF0CCKJbG5IJEEAQgSIQQZcAgujWhmQCBB4IZMgT4dmzpnn1Ks9c37/fzvPtW9PY99ivY7O4/bv9fvzoHh3/8+3b4+dImeH9+5RR8mPKEcRQW2Pm+HLzOOE+fbqddUyjujmm5OlvazlMVBNnTAbfvvtz+8aw7ECgLEEOh5X5gRPFpj22QadGs8a2b8tiwi6VY2r+lW7HPciYwllzfviQ70w1Zt/dsS7H69fdpTyegQCCTIFq1/EKlyomCpJMqWDyNuVfYtnlSOqNdrfprfliX7Y+dV43T2oWl+Pp02ERXc5jL7kKual2qHP9LF8QI5XayN1x1nD26uwasE/cmti+u9v0x/iep4zvj4nlsH24jMdI0t+nL3uFy7jEihXdGi72yuoaMzZHjnWW482b25vz0HyWxZ15QmNYPpoAggwhs1fWmCRD2+dcryJszmMSnwtBUgoUuvxY4hU7Jqy77Es5JsYkEUCQJEy7QWqSuA8v+/lPddnX32+hzxFkrYVVEnatDBNyI0gCpP2Q/u9HpW431zgTBEnmonuYF0EOKAYe2GcSvq9Qk/rG5l4Wusxa4t4o97GJzIcgqYVYU9OFZE49VsYdCCDIAUXkQejXOZY8e1jcpfcfQVbKqjo+ST+mWnbmCL0zpHBfYpL0z2795ynHn/Pfiah8bpRy3ANjECQEyIkRa7ZjfrUjtN+llseOc6lMAvstXxC7Hg9dIvkK4K7fhxomdIPsm5NlqyVQviDW6EPNPrZ8dllT0tlj7PFXNJ6b9LHFNjkKusYee/i1jS//DJKzonZZVeqZA+m9nYIgXiydhXbGcPcb9rjUr5KP7YialS+IFX7s27GuWdzPIwDPvqnv/moNuWcHk2cH5QuS40/l5GGdfxafHLaXsS8I+ZMVMyM36WsuZUiQNR+TWHYEESvIqDihT/hLfSNhFJw8gxEkD8fTzzLmw8/Tpytmjwiy1lK6T/z7+d07bv3lPJ9EAEEmYVt4Izt7hO4/uLzKWhwEyYrzBJOZHKF7D84e2QtQ/tu82ZEtNKGdMUyM0JnDPvvg7JG9OAiSHWnGCZ0MMTHc7vhVEUci608EyYpzYLKUX73v3nw7QQam5ZcnhwBNX48g09mN39IaPrXpU2e3Mwe/WpJKa/Q4BBmNTGQDk4LLqtmLgSCzI868AxPD3q3irJEZrH86BPFz0VrqpLBUiHHS2pQliO9zgKUaypclpbT9vP3nKXPExkzNFZuz4HXlCGKNlLuZphZeKUv/GPispE8k+pxP0qN4WFk7AQSpvQM4/igBBIniYWXtBBCk9g7g+KMEECSKh5W1E0CQ2juA448SQJAoHlbWTgBBau8Ajj9KAEGieFhZOwEEqb0DOP4oAQSJ4mFl7QQQpPYO4PijBBAkioeVtRNAkNo7gOOPEkCQKB5W1k5AS5Czs39rL0jtx7/5/FmqB7QEqb07aj/+zUZKDiuHlCBqrx619+vJj79t/zv5Pgd2qPdPbu1VpG233twvX3oXs3BFBL5+bZofP1YTeKOWtD0/v9plulTLRZ75CWyur+X6UeoSy0qwg3TVCF6Lzt8e1e/hnSIBOUH2kDYbSViKBSwk07v9C6Pgwcid0hwjLrUcifJ/Kl5aOeqaZ5Bdur+vKJxJXKVK/Lm7lFaWw5DLnkG6/cDZpEujkMdnZ/+s4W39VQjiWqK9uNg2Nzfb/fPN5rlbzs+VEPh7b7kGMVZClJgQgAAEIAABCEAAAhCAAAQgAAEIQAACEIAABCAAAQhAAAIQgAAEIAABCEAAAhCAAARWQeB/L4jK4AsPcpwAAAAASUVORK5CYII=;" vertex="1" parent="1">
          <mxGeometry x="123.25" y="133" width="43" height="43" as="geometry" />
        </mxCell>
        <mxCell id="Aw4LAdJU4ZUVSzUaRyW1-3" value="" style="shape=image;verticalLabelPosition=bottom;labelBackgroundColor=default;verticalAlign=top;aspect=fixed;imageAspect=0;image=data:image/png,iVBORw0KGgoAAAANSUhEUgAAAMgAAADICAYAAACtWK6eAAAAAXNSR0IArs4c6QAAAERlWElmTU0AKgAAAAgAAYdpAAQAAAABAAAAGgAAAAAAA6ABAAMAAAABAAEAAKACAAQAAAABAAAAyKADAAQAAAABAAAAyAAAAACbWz2VAAALpUlEQVR4Ae2dS3bURhRAW20TpnCyBwZkERiSIcOYLCGMswGcDTDOGjBDDwE7iwgDNpCTcPhMcxLc6dfmgSypSlVStep36xxQt6pUn/vquqT+abUiQQACEIAABCAAAQhAAAIQgAAEIAABCEAAAhCAAAQgAAEIQAAC1RFochjxn2/fHkk/1+v1biuPSWEIfPPzTxe3n7+4CFNbebUkLchf796dbJE/KQ97OiO6+fh4tdms7yPJcEzWw7vj7pUV4+/378+3vUCOBULRNJfnH3784WiBprJrIjlBRI7tqdT5ZrMhYAtOJyQZhp2cIAcHB6waw7Ha+14k6SNOShC55mDl6AdpyT1Icp12UoJsu8bqcT0+UZ4hyVfsyQiiL+V+7RqPYhJAkiv6yQjCexwxdRhuG0m2770No2EvBK4I1C5JMoI0TXOPSZkmgZolSUaQNKcGvVICtUqCIDoD2I4SqFESBBmdFhRoE6hNEgRpR5/HTgRqkgRBnKYEhboEapEEQbqR57kzgRokQRDn6UDBIQKlS4IgQ1FnnxeBkiVBEK+pQGETgVIlQRBTxNnvTaBESRDEexpwgI1AaZIgiC3a5E0iUJIkCDJpCnDQGIFSJEGQsUiTP5lACZIgyOTwc6ALgdwlQRCXKFNmFoGcJUGQWaHnYFcCuUqCIK4RptxsAjlKgiCzw553BZd3vlt0ALlJgiCLTo/0GtssLIgQyEkSBElvzi7ao8s7dxdtTxvLRRIE0YhVupVTrKVPsxR1DpIgiEar4u2nh8fRRp+6JAgSbWqk07CsIJ8ePorWoZQlQZBo0yKthv/briJI0o8JgvSZVLsHSfqhT+YehXLLNe4N0g9QrD2HZ6e7pps3f6zW239LppTumXi45MBpKx8CsppcJd0u2vej1fNvLxZt0dAYp1gGMOyGgBBAEOYBBCwEEMQChywIIAhzAAIWAghigUMWBBCEOQABCwEEscAhCwIIwhyAgIUAgljgkAUBBGEOQMBCAEEscMiCAIIwByBgIYAgFjhkQQBBmAMQsBBAEAscsiCAIMwBCFgIIIgFDlkQQBDmAAQsBBDEAocsCCAIcwACFgIIYoFDFgQQhDkAAQsBBLHAIQsCCMIcgICFAIJY4JAFAQRhDkDAQgBBLHDIggC/zRtoDsgPPB9sf/BZtnIbAbm12VJ3buq2/fV3dQMNruJqWEECBF8m6I2nJ19+Bf3g7Nm15wGaMFYx1PbNx8df+mI8kAwnAgjihMlcSCfoUIn1m9dDu4PuM7XRFjZog5VVhiAzAm6TY0a1XofK/TtMCUlMZNz3I4g7q2slU5BDOjR2A04kuRY27ycI4o1se8+Iz9cctkPlQn2Ji2WXG3AiiS1S9jwEsfPp5aYkh3bO5d6CSKK0/LYI4sFL7tsnE82Wllo5un1Aki6RMM8RxJGjyCEv39pSLDm0T0iiJMJtEcSBZQ5y6DCQREmE2SLICMec5NChIImSmL9FEAvDHOXQ4bhKImMkmQkgiIFNznLokFwkkesqJFFi/S2C9JnsJkzqF+QD3R7chSSDWJx3IkgHVQkrR2dIuzcs5RU2W2IlGaaDIC0uJcqhw2MlURJ+WwT5zKtkOXRKIImScN8iyJZVDXLolEASJeG2rV6QmuTQKYEkSmJ8W7UgNcqhUwJJlIR9W7UgpbyUaw+xOddVEvkEc62pWkFk9bCl2B88tPUtZJ6LJCHby62uagWRXx0hQWCMQLWCjIGp5Y2zsesw+cbiUj9fNBaTGPnVCiJB//eXEyvz0iUZk0PgjH3n3QqwgMxqBZHY1SyJfDNy7EUK+QNS8+ohc6RqQWqVxOX76cghswNBdhBqWkmQYxdy5/+qX0GUVA2SIIdG232LIC1WJUuCHK1AezxEkA4sV0lkwuWSkGN6pBBkgJ2LJC4/IDdQ9eK7kGMecgQx8CtBEuQwBNdjN4JYYOUsCXJYAuuRhSAjsHKUBDlGguqRjSAOsHKSBDkcAupRBEEcYeUgCXI4BtOjGIJ4wEpZkjE5tO+yJbkTQBB3VruSOtFshy39EjBy2KIxLw9BJvBzlWSJr6rKR9Zt7bj0dQKCag5BkImhdpl4ct/0fSfbTTxd+rjv/uVeP4LMiODYBNxEPN8f69uMYVd1KILMDLdMxH9+Ox38YpH8IMK+09A3/pAjHPXDcFXVXZN8wUiuB/SUZ2ji7oOQyrB+83rXtqxaS4i5j7GkWCeCBIzK1cTc/6rR7bJIIv9Wq+Xb7valtOecYpUWUcYTlACCBMVJZaURQJDSIsp4ghJAkKA4qaw0AghSWkQZT1ACCBIUJ5WVRgBBSoso4wlKAEGC4qSy0gggSGkRZTxBCSBIUJxUVhoBBCktoownKAEECYqTykojgCClRZTxBCWAIEFxUllpBBCktIgynqAEECQoTiorjQCClBZRxhOUAIIExUllpRFAkNIiyniCEkCQoDiprDQCCFJaRBlPUAIIEhQnlZVGAEFKiyjjCUoAQYLipLLSCCBIaRFlPEEJIEhQnFRWGgEEKS2ijCcoAQQJipPKSiOAIKVFlPEEJYAgQXFSWWkEmpgD+nj8/flqtTmK2QfaTp1Ac3Hr9OX9WL1kBYlFnnazIIAgWYSJTsYigCCxyNNuFgQQJIsw0clYBBAkFnnazYJAUTfxlBtZyt1l5Y6vkg7Onk0OQrsuuXPtevtvLMmdbqckvUPtWBvtPkk7IcYn9Uj7LnW123cpL3XnnooR5NPDR19ufyyB1DQlkP26jlc3np5YJZF7pU9NV/0db0MF1PFd3rm765dvu+3xybFan42VtK3lZCt39L35uPy76hZziiWTpZum3i986Djbfc9lwoVIvm3IRPVtWyd3t78yZhWgmydtDOWpsN3yJT0vSJCvq0Y7QEOBbed3H5vKm/bL8UNydut1eT6lDZnYPpLYJHTpY21lihEkZuAOzqafXrX7fTixHttf/3b9ppWgXYbH1wkgyHUek57JxfXYBbZLxfJiwNQ0tjKIHEOnjlPbq+W4Yi7SYwdMLuK7pzpy6mU6bWqvFq6vktnGKO1I+0MX2pKHHDZ65jwEMbPxzulNTsPFraw2vbLerfUPUAm6dY+tLv2a2KMEOMVSEoVsu9cjXHfMCyyCzOOX5NG6YnDdMT88CDKfYXI16PWInnIl18GMOoQgGQXLp6vI4UPLXLb4i/TN9hWcS/P4ezlSngQBJVC8IFd/Scv9zJC8XGx7OVkDrVspz+qiNMa3nGKNM0q+hOs7+SJH9yXg5AcXuYMIEjkAIZqX91Xabzya6kQOExnzfgQxs8kqRya/7eMu8k4/yZ8AgvgzS/YIkwSyutjkSXZACXQMQRIIQsgudCXhumMe3eJfxZIJ4/PXU95ky/mLQDLWGr7pN2/aux/NCuLOipIVEkCQCoPOkN0JIIg7K0pWSABBKgw6Q3YngCDurChZIYHiX8WqMKaLDdn1Fb8QP+S32KA6DSFIBwhP/QiIJGOpXcb34y6bZvP7WP37zI96ihV78PsES919Ajl+ijiqIKvL9UUfI3tKJtBeTXIYZ1RBbj9/cREKkundctN+U7um8i6flu3WafqdKz0n75a3PTd9pN3Uhq0u0xhN+6e0YWrf1Iap/O1nr05MeUvsjyrI1QCbixADHZpAUya19KV7nAR1yiSR44bq8j0Plz5JXd3JJXV390nZseTLamgcY20M5XdZDJVp79s0q1/bz2M8jnoTTx3wx+MHG308dyu/5KGTecrkabevdc2tR04r5Ku80q+5dUmfJIWqy4eVtt1m5PLYp412fbdOX0Wfn9E7IEA+PHpw0mxWT9pweFw3AVk9Yp9eSQSSEEQ6giRCgSQEUpFD+pKMINIZJBEKdaeU5JBIJCWIdAhJhEKdKTU5JArJCaJTA1GURA3b5uLW6cv7KY40WUEUloiij5tNc08fs82bwO5TFNs3ikO+F5Y3EXoPAQhAAAIQgAAEIAABCEAAAhCAAAQgAIGpBP4HnxhDmx8q1qAAAAAASUVORK5CYII=;" vertex="1" parent="1">
          <mxGeometry x="198.25" y="136.5" width="40" height="40" as="geometry" />
        </mxCell>
        <mxCell id="Aw4LAdJU4ZUVSzUaRyW1-21" style="edgeStyle=orthogonalEdgeStyle;rounded=0;orthogonalLoop=1;jettySize=auto;html=1;exitX=0.5;exitY=1;exitDx=0;exitDy=0;entryX=0.5;entryY=0;entryDx=0;entryDy=0;strokeWidth=2;" edge="1" parent="1">
          <mxGeometry relative="1" as="geometry">
            <mxPoint x="-124" y="-101" as="sourcePoint" />
            <mxPoint x="-124" y="-73" as="targetPoint" />
          </mxGeometry>
        </mxCell>
        <mxCell id="Aw4LAdJU4ZUVSzUaRyW1-4" value="&lt;font style=&quot;font-size: 24px;&quot;&gt;文档解析流程&lt;/font&gt;" style="rounded=1;whiteSpace=wrap;html=1;strokeWidth=2;" vertex="1" parent="1">
          <mxGeometry x="88" y="251" width="229" height="60" as="geometry" />
        </mxCell>
        <mxCell id="Aw4LAdJU4ZUVSzUaRyW1-5" value="" style="shape=image;verticalLabelPosition=bottom;labelBackgroundColor=default;verticalAlign=top;aspect=fixed;imageAspect=0;image=data:image/png,iVBORw0KGgoAAAANSUhEUgAAAMgAAADICAYAAACtWK6eAAAAAXNSR0IArs4c6QAAAERlWElmTU0AKgAAAAgAAYdpAAQAAAABAAAAGgAAAAAAA6ABAAMAAAABAAEAAKACAAQAAAABAAAAyKADAAQAAAABAAAAyAAAAACbWz2VAAAJrklEQVR4Ae2djXHcNhBGrdiFuJNApaQSrSpJOjm4E6cSZ7/TUeZd7ocEcQABvJ3ZIUgC2N0HfALtkZMvXzAIQAACEIAABCAAAQhAAAIQgAAEIAABCEAAAhCAAAQgAAEIQAACEIAABCAAAQhAAAIQgAAEIAABCEAAAhCAAAQgAAEIQAACEIAABCAAAQhAAAIQgAAEIAABCEAAAhCAAAQgAAEIQAACEIAABCAAAQhAAAIQgAAEIAABCEAAAhCAAAQgAAEIQAACEIAABCAAAQhAAAIQgAAEIAABCHRO4GVDfWE2dt6ePaYJgeoE4imD6boqobUCCT772ymC2hgEWiLw7snGk2fNO/hsB/dfOAw62APay+b+0L4+6BH8/d/u5v7dHYNADwS+exHBffqC+unt1RZ8BCcGDEbYA3ZLHbdOEA3QyYFBYAQCwYvUaRLdz+yaQMx7vJ314gYC/RMIXuJVkcxLN78Z4UilRtb51h4Ic0FMf0iZnmkQBoHRCXzq4o8ZCZu1aUJgZAKHqfhPpfgDTo+JClcIfPny6hDidIIYRCAAgTMCb7qbThBOjzM23EDgSOCoD/OmBJLiBx8X3DEI7JFA8KTMPWVva0xwT57gOFgTYBDYOQHz/FJEogMg6ZcQFRCDQEsEgie7ViRJAjkOaokMuULgREB7d41IDvpbrHAavPTyY2lH+kGgcQJBAsEgMAqB1T/cEcgoW4M6kwggkCRsDBqFAAIZZaWpM4kAAknCxqBRCCCQUVaaOpMIIJAkbAwahQACGWWlqTOJAAJJwsagUQggkFFWmjqTCCCQJGwMGoUAAhllpakziQACScLGoFEIfKtcaMgYP2acK9dUIddEPk/MONfaqcLaAXf6xzvvdvlqze/Hq69lrGLt7+ffyzVnXrlKvJfv2nchV1IJ85iPWZvvrf4hIX6uIeYT3crr6vOePrHevPjgvhc77CUR8kgn0JNAREGbMqhR2czjh8o5ED4Dgd4EIiQ6SWqaefDaOdSsv6vYPQok+ApZxVVCHBXh5w7do0DESJs0qFHYDoXjEe7JBHoViLBpswY1Cpl5nFAoFmEKEehZIEJY6nPHCsZSXVghAr0LJDhHK8CylBALlEKIOYHeBaJatXmDGk8yfcphnRIYQSBaOm3ioEZmM58vZJ6T6XZEYBSBCHnuzyB7wpzKE9sRgZEEEpy7ZWSfW3AZU2OqXARGEoiYaVMHNTaaPtmwAQiMJhAtqTZ3UCPRzMeFxLEMa4zAiALREqV+HtmGsYqLNUZgVIEEXydLWKtUYSWEYsgeCIwqELHXZg9qLDR9mmGDERhZIFpqbfqgxgMzfx8e9OF1hwRGF4iW9NFnky3oo3mwDgkgkI+Twe6s7SMB3RnKq9YJ9CSQ9w2LIRGEK+P1CZZq0QduySk1LuMyEuhJIOZctmxIiSG4T2beCNNNwnVLLgnhGPIMAj0JRHzMPbqn2vQ5ZT7B1E6ZS+KIKQMZsy8CvQlEdLf85A4+3ty3ikNzYB0Q6FEg0dfldcPabBGHYtuG2AzdGYEeBSLE0X3LSaI5UmyLMFPiMebJBHoViLCZe3QvZTUEWaq2YeP0LBAtaqlNqzimgFhfBHoXSPTlevZnj2KYO9Yhgd4FoiWL7s88SZ4tQNWAVSIwgkCE1tyje257pvBy5HrwSX5l8C1/s3dZR66c7HLiZ9yPIhCxy72ZNZ9p4h2bTre44/xSUyvGfiSBaKNow+Sw6JNYjokKzJGr5gKpLgpRTBzKZiSBqN7oLsBbrbVN11q+t9Yn+gu79fIZz0cTiBiae3RPtRwCS42dOi76wNZFUqWGEQWiTZa6WSQO0wQNWvScWxT3hLpK7qMKRNDXiqRlcUybzLxRZaNNCSRetVYxceymYSMLRMDXbBbbRHo/g1XHmrprZ65cY60kRhaImJt7dH9kLW2oR7Xovbm3UJNyVK7VbHSBCPzrA/rVF+lBfqmvzQfuWSS74I5APrbXLZHsYpFSFbBgnHmfuKBf6S674Y5APpZem0SLcml2+aDDe/1wiDuqazfiEBME8ntnmDfj79urgpm97qopkezBdiUOAUEg59ti2ii7W6jzNJ9yN9X+lMkXTBq9jy3oV7TLt6LR2gj20kaa2bOMPqNEot+2LW3RA9YW6NWaOUGuYhn2YfTK3ytUXyPmojIRyCJMQ3Uyr7bkhtXJEd13aQhkl8tSPSnzDEqIRDGi+24Ngex2aaonZp7BM0WiuRVj14ZAdr081ZMzz+AZImlCHKKPQEQBu0fA/GW812Hlu2bEoboQyMrVHbT7q9cdM9TelDhULwLJsOqDTCGRbLHmxKFiEciWJR9vbKpIoqOyFnEhkBZXrV7O0UOvFUnKmHoVXkRGIBdAuH1IIHoPfS4ttTV9l85ZrB8CKYa6q0Dm1SzZ+DptonuzhkCaXbrqiZtncE8kehfdmzYE0vTyVU/ePINrItEzvWveEEjzS1i9APMM5iLpRhwiy78HEQVsKwHzCf50/+GudjdWWyD6aTP/6dMN2FMh5td4am+95Jpnax63xr/eetHy89oCiS3DW5j7CDUuRNFeN/4M0t6akXFBAgikIGxCtUcAgbS3ZmRckAACKQibUO0RQCDtrRkZFySAQArCJlR7BBBIe2tGxgUJIJCCsAnVHgEE0t6akXFBAgikIGxCtUcAgbS3ZmRckAACKQibUO0RSBGIfq0Zg8AQBCSQOESlFAmBj3+zsoZDTDlBgkeQYxBoiYB5siElYf0fhX4luKUEYwwEKhAIHjN5j6cOVkBz13gMAnskEDyp1APguL9fTlXpBoMABM4JvEx/Bonnz7mDwPAEjv+thOkECY5DRxEGAQh8EDhqY36CRMhAAAJHAsfTQ63pBJm48GeRiQTXkQl86mI6QSYYr1ODKwQGJfB5eqj+rxcQfvq91BPcMQiMRkDisHnRlwLRu+iOSEQCG4nA/8Sh4q8JRM+jOyIRCWwEAq9e5D/XCr0lEPWN7j/c/3UP7hgEeiMQvaC/3HXdZOaj9TdcOAx62AMH38vB/aG9POxx3iH4rfzNHYNASwTiKdl3v07t06Pbl7UCmc8UTjfTdf6ONgT2QCDOkpi3Z49pQgACEIAABCAAAQhAAAIQgAAEIAABCEAAAhCAAAQgAAEIQAACEIAABCAAAQhAAAIQgAAEIAABCEAAAhCAAAQgAAEIQAACEIAABCAAAQhAAAIQgAAEIAABCEAAAhCAAAQgAAEIQAACEIAABCAAAQhAAAIQgAAEIAABCEAAAhCAAAQgAAEIQAACEIAABCAAAQhAAAIQgAAEIAABCEBgcAL/AeEPvFKqrsD8AAAAAElFTkSuQmCC;" vertex="1" parent="1">
          <mxGeometry x="179" y="339" width="47" height="47" as="geometry" />
        </mxCell>
        <mxCell id="Aw4LAdJU4ZUVSzUaRyW1-20" style="edgeStyle=orthogonalEdgeStyle;rounded=0;orthogonalLoop=1;jettySize=auto;html=1;exitX=0.5;exitY=1;exitDx=0;exitDy=0;entryX=0.5;entryY=0;entryDx=0;entryDy=0;strokeWidth=2;" edge="1" parent="1" source="Aw4LAdJU4ZUVSzUaRyW1-7" target="Aw4LAdJU4ZUVSzUaRyW1-4">
          <mxGeometry relative="1" as="geometry" />
        </mxCell>
        <mxCell id="Aw4LAdJU4ZUVSzUaRyW1-7" value="&lt;font style=&quot;font-size: 16px;&quot;&gt;AI技术文献源文档&lt;/font&gt;" style="text;html=1;align=center;verticalAlign=middle;whiteSpace=wrap;rounded=0;" vertex="1" parent="1">
          <mxGeometry x="132.25" y="178" width="141" height="30" as="geometry" />
        </mxCell>
        <mxCell id="Aw4LAdJU4ZUVSzUaRyW1-8" value="" style="shape=image;verticalLabelPosition=bottom;labelBackgroundColor=default;verticalAlign=top;aspect=fixed;imageAspect=0;image=data:image/png,iVBORw0KGgoAAAANSUhEUgAAAMgAAADICAYAAACtWK6eAAAAAXNSR0IArs4c6QAAAERlWElmTU0AKgAAAAgAAYdpAAQAAAABAAAAGgAAAAAAA6ABAAMAAAABAAEAAKACAAQAAAABAAAAyKADAAQAAAABAAAAyAAAAACbWz2VAAAJ40lEQVR4Ae2dQXLTShRF5RQDGLIFBrAM/EMYwi7YAfOEOTtgFzClwv9LYAgLgCFDGEXfz6FditLdaskt66r7pCoVW2q1rs57x5LsEJqGLwhAAAIQgAAEIAABCEAAAhCAAAQgAAEIQAACEIAABCAAAQhAAAIQgAAEIAABCEAAAhCAAAQgMCOBzYxzZ526vbjY7ie8udk2m83zpm1vn2fdS7GTvdtcX18Ve3QzHtgqBGlfvPiCEEd3AZJMQCgtyP6scXPzZcJxsYmfAJL4uQSXngXXLLyiPT+/apAjdxUu91xzz1rwfJJnEM4cs3ccZ5JExJpnkLa9TMzPsGkEOJMkcpMTZH8JwDtUieU7ahiSJOB7kDDmtENu38L17/PRI/9ylt4l8Pv33efhZyZJw1vAYUBy9yC7grXBuE+eBFexokPg58+mSZfENuSepIOv+1DqEuvwYWA3IY9PQYDLrQBlKUF2b+tuAzlZPD8BJPEw1hLEE5BFJyWAJD3cCNIDwtMGSTpNgCAdGDw8EECSvygQ5NATPOgRQJIdEATpdQVP7xCoXhIEudMPPPEQqFoSBPF0BIvuEahWEgS51wssCBCoUhIECXQDi70EqpMEQbx9wMIIgaokQZBIJ7AqSOCylt+bQ5BgD7AiSmD3z6FrkARBol3AyiiBCiRBkGgHsHKQQOGSIMhgBzBgkEDBkiDIYPUZkESgUEkQJKn6DEoiUKAkCJJUeQYlEyhMEgRJrjwDkwkUJAmCJFedgaMIFCIJgoyqOoNHEShAEgQZVXEGjyawckkQZHTF2WA0gRVLgiCjq80GkwisVBIEmVRtNppEYIV/tR9BJlWajSYR2P3V/v1/pzdp42U2QpBluNe715VJgiD1tupyR74iSRBkuTape88rkQRB6m7TZY9+BZIgyLItwt7FJUEQWnR5AsKSIMjy7UECIyAqCYLQnjoETJKLi61OIP66u1ItyCJIgDOIYFGIpEMAQXRqQRJBAggiWBQi6RBAEJ1akESQwAPBTEQ6lsDDh01j36pfv36pJruXC0HuISlgwePHugfx50/TrEgQLrF0W4lkAgQQRKAIRNAlgCC6tSGZAAEEESgCEXQJIIhubUgmQABBBIpABF0CCKJbG5IJEEAQgSIQQZcAgujWhmQCBBBEoAhE0CWAILq1IZkAAQQRKAIRdAkgiG5tSCZAAEEEikAEXQIIolsbkgkQQBCBIhBBlwCC6NaGZAIEEESgCETQJYAgurUhmQABBBEoAhF0CSCIbm1IJkAAQQSKQARdAgiiWxuSCRBAEIEiEEGXAILo1oZkAgQQRKAIRNAlgCC6tSGZAAEEESgCEXQJIIhubUgmQABBBIpABF0CCKJbG5IJEEAQgSIQQZcAgujWhmQCBBBEoAhE0CWAILq1IZkAAQQRKAIRdAkgiG5tSCZAAEEEikAEXQIIolsbkgkQQBCBIhBBlwCC6NaGZAIEEESgCETQJYAgurUhmQABBBEoAhF0CSCIbm1IJkAAQQSKQARdAgiiWxuSCRBAEIEiEEGXAILo1oZkAgQQRKAIRNAlgCC6tSGZAAEEESgCEXQJIIhubUgmQABBBIpABF0CCKJbG5IJEEAQgSIQQZcAgujWhmQCBB4IZMgT4dmzpnn1Ks9c37/fzvPtW9PY99ivY7O4/bv9fvzoHh3/8+3b4+dImeH9+5RR8mPKEcRQW2Pm+HLzOOE+fbqddUyjujmm5OlvazlMVBNnTAbfvvtz+8aw7ECgLEEOh5X5gRPFpj22QadGs8a2b8tiwi6VY2r+lW7HPciYwllzfviQ70w1Zt/dsS7H69fdpTyegQCCTIFq1/EKlyomCpJMqWDyNuVfYtnlSOqNdrfprfliX7Y+dV43T2oWl+Pp02ERXc5jL7kKual2qHP9LF8QI5XayN1x1nD26uwasE/cmti+u9v0x/iep4zvj4nlsH24jMdI0t+nL3uFy7jEihXdGi72yuoaMzZHjnWW482b25vz0HyWxZ15QmNYPpoAggwhs1fWmCRD2+dcryJszmMSnwtBUgoUuvxY4hU7Jqy77Es5JsYkEUCQJEy7QWqSuA8v+/lPddnX32+hzxFkrYVVEnatDBNyI0gCpP2Q/u9HpW431zgTBEnmonuYF0EOKAYe2GcSvq9Qk/rG5l4Wusxa4t4o97GJzIcgqYVYU9OFZE49VsYdCCDIAUXkQejXOZY8e1jcpfcfQVbKqjo+ST+mWnbmCL0zpHBfYpL0z2795ynHn/Pfiah8bpRy3ANjECQEyIkRa7ZjfrUjtN+llseOc6lMAvstXxC7Hg9dIvkK4K7fhxomdIPsm5NlqyVQviDW6EPNPrZ8dllT0tlj7PFXNJ6b9LHFNjkKusYee/i1jS//DJKzonZZVeqZA+m9nYIgXiydhXbGcPcb9rjUr5KP7YialS+IFX7s27GuWdzPIwDPvqnv/moNuWcHk2cH5QuS40/l5GGdfxafHLaXsS8I+ZMVMyM36WsuZUiQNR+TWHYEESvIqDihT/hLfSNhFJw8gxEkD8fTzzLmw8/Tpytmjwiy1lK6T/z7+d07bv3lPJ9EAEEmYVt4Izt7hO4/uLzKWhwEyYrzBJOZHKF7D84e2QtQ/tu82ZEtNKGdMUyM0JnDPvvg7JG9OAiSHWnGCZ0MMTHc7vhVEUci608EyYpzYLKUX73v3nw7QQam5ZcnhwBNX48g09mN39IaPrXpU2e3Mwe/WpJKa/Q4BBmNTGQDk4LLqtmLgSCzI868AxPD3q3irJEZrH86BPFz0VrqpLBUiHHS2pQliO9zgKUaypclpbT9vP3nKXPExkzNFZuz4HXlCGKNlLuZphZeKUv/GPispE8k+pxP0qN4WFk7AQSpvQM4/igBBIniYWXtBBCk9g7g+KMEECSKh5W1E0CQ2juA448SQJAoHlbWTgBBau8Ajj9KAEGieFhZOwEEqb0DOP4oAQSJ4mFl7QQQpPYO4PijBBAkioeVtRNAkNo7gOOPEkCQKB5W1k5AS5Czs39rL0jtx7/5/FmqB7QEqb07aj/+zUZKDiuHlCBqrx619+vJj79t/zv5Pgd2qPdPbu1VpG233twvX3oXs3BFBL5+bZofP1YTeKOWtD0/v9plulTLRZ75CWyur+X6UeoSy0qwg3TVCF6Lzt8e1e/hnSIBOUH2kDYbSViKBSwk07v9C6Pgwcid0hwjLrUcifJ/Kl5aOeqaZ5Bdur+vKJxJXKVK/Lm7lFaWw5DLnkG6/cDZpEujkMdnZ/+s4W39VQjiWqK9uNg2Nzfb/fPN5rlbzs+VEPh7b7kGMVZClJgQgAAEIAABCEAAAhCAAAQgAAEIQAACEIAABCAAAQhAAAIQgAAEIAABCEAAAhCAAARWQeB/L4jK4AsPcpwAAAAASUVORK5CYII=;" vertex="1" parent="1">
          <mxGeometry x="161.25" y="135" width="43" height="43" as="geometry" />
        </mxCell>
        <mxCell id="Aw4LAdJU4ZUVSzUaRyW1-9" value="" style="shape=image;verticalLabelPosition=bottom;labelBackgroundColor=default;verticalAlign=top;aspect=fixed;imageAspect=0;image=data:image/png,iVBORw0KGgoAAAANSUhEUgAAAMgAAADICAYAAACtWK6eAAAAAXNSR0IArs4c6QAAAERlWElmTU0AKgAAAAgAAYdpAAQAAAABAAAAGgAAAAAAA6ABAAMAAAABAAEAAKACAAQAAAABAAAAyKADAAQAAAABAAAAyAAAAACbWz2VAAALpUlEQVR4Ae2dS3bURhRAW20TpnCyBwZkERiSIcOYLCGMswGcDTDOGjBDDwE7iwgDNpCTcPhMcxLc6dfmgSypSlVStep36xxQt6pUn/vquqT+abUiQQACEIAABCAAAQhAAAIQgAAEIAABCEAAAhCAAAQgAAEIQAAC1RFochjxn2/fHkk/1+v1biuPSWEIfPPzTxe3n7+4CFNbebUkLchf796dbJE/KQ97OiO6+fh4tdms7yPJcEzWw7vj7pUV4+/378+3vUCOBULRNJfnH3784WiBprJrIjlBRI7tqdT5ZrMhYAtOJyQZhp2cIAcHB6waw7Ha+14k6SNOShC55mDl6AdpyT1Icp12UoJsu8bqcT0+UZ4hyVfsyQiiL+V+7RqPYhJAkiv6yQjCexwxdRhuG0m2770No2EvBK4I1C5JMoI0TXOPSZkmgZolSUaQNKcGvVICtUqCIDoD2I4SqFESBBmdFhRoE6hNEgRpR5/HTgRqkgRBnKYEhboEapEEQbqR57kzgRokQRDn6UDBIQKlS4IgQ1FnnxeBkiVBEK+pQGETgVIlQRBTxNnvTaBESRDEexpwgI1AaZIgiC3a5E0iUJIkCDJpCnDQGIFSJEGQsUiTP5lACZIgyOTwc6ALgdwlQRCXKFNmFoGcJUGQWaHnYFcCuUqCIK4RptxsAjlKgiCzw553BZd3vlt0ALlJgiCLTo/0GtssLIgQyEkSBElvzi7ao8s7dxdtTxvLRRIE0YhVupVTrKVPsxR1DpIgiEar4u2nh8fRRp+6JAgSbWqk07CsIJ8ePorWoZQlQZBo0yKthv/briJI0o8JgvSZVLsHSfqhT+YehXLLNe4N0g9QrD2HZ6e7pps3f6zW239LppTumXi45MBpKx8CsppcJd0u2vej1fNvLxZt0dAYp1gGMOyGgBBAEOYBBCwEEMQChywIIAhzAAIWAghigUMWBBCEOQABCwEEscAhCwIIwhyAgIUAgljgkAUBBGEOQMBCAEEscMiCAIIwByBgIYAgFjhkQQBBmAMQsBBAEAscsiCAIMwBCFgIIIgFDlkQQBDmAAQsBBDEAocsCCAIcwACFgIIYoFDFgQQhDkAAQsBBLHAIQsCCMIcgICFAIJY4JAFAQRhDkDAQgBBLHDIggC/zRtoDsgPPB9sf/BZtnIbAbm12VJ3buq2/fV3dQMNruJqWEECBF8m6I2nJ19+Bf3g7Nm15wGaMFYx1PbNx8df+mI8kAwnAgjihMlcSCfoUIn1m9dDu4PuM7XRFjZog5VVhiAzAm6TY0a1XofK/TtMCUlMZNz3I4g7q2slU5BDOjR2A04kuRY27ycI4o1se8+Iz9cctkPlQn2Ji2WXG3AiiS1S9jwEsfPp5aYkh3bO5d6CSKK0/LYI4sFL7tsnE82Wllo5un1Aki6RMM8RxJGjyCEv39pSLDm0T0iiJMJtEcSBZQ5y6DCQREmE2SLICMec5NChIImSmL9FEAvDHOXQ4bhKImMkmQkgiIFNznLokFwkkesqJFFi/S2C9JnsJkzqF+QD3R7chSSDWJx3IkgHVQkrR2dIuzcs5RU2W2IlGaaDIC0uJcqhw2MlURJ+WwT5zKtkOXRKIImScN8iyJZVDXLolEASJeG2rV6QmuTQKYEkSmJ8W7UgNcqhUwJJlIR9W7UgpbyUaw+xOddVEvkEc62pWkFk9bCl2B88tPUtZJ6LJCHby62uagWRXx0hQWCMQLWCjIGp5Y2zsesw+cbiUj9fNBaTGPnVCiJB//eXEyvz0iUZk0PgjH3n3QqwgMxqBZHY1SyJfDNy7EUK+QNS8+ohc6RqQWqVxOX76cghswNBdhBqWkmQYxdy5/+qX0GUVA2SIIdG232LIC1WJUuCHK1AezxEkA4sV0lkwuWSkGN6pBBkgJ2LJC4/IDdQ9eK7kGMecgQx8CtBEuQwBNdjN4JYYOUsCXJYAuuRhSAjsHKUBDlGguqRjSAOsHKSBDkcAupRBEEcYeUgCXI4BtOjGIJ4wEpZkjE5tO+yJbkTQBB3VruSOtFshy39EjBy2KIxLw9BJvBzlWSJr6rKR9Zt7bj0dQKCag5BkImhdpl4ct/0fSfbTTxd+rjv/uVeP4LMiODYBNxEPN8f69uMYVd1KILMDLdMxH9+Ox38YpH8IMK+09A3/pAjHPXDcFXVXZN8wUiuB/SUZ2ji7oOQyrB+83rXtqxaS4i5j7GkWCeCBIzK1cTc/6rR7bJIIv9Wq+Xb7valtOecYpUWUcYTlACCBMVJZaURQJDSIsp4ghJAkKA4qaw0AghSWkQZT1ACCBIUJ5WVRgBBSoso4wlKAEGC4qSy0gggSGkRZTxBCSBIUJxUVhoBBCktoownKAEECYqTykojgCClRZTxBCWAIEFxUllpBBCktIgynqAEECQoTiorjQCClBZRxhOUAIIExUllpRFAkNIiyniCEkCQoDiprDQCCFJaRBlPUAIIEhQnlZVGAEFKiyjjCUoAQYLipLLSCCBIaRFlPEEJIEhQnFRWGgEEKS2ijCcoAQQJipPKSiOAIKVFlPEEJYAgQXFSWWkEmpgD+nj8/flqtTmK2QfaTp1Ac3Hr9OX9WL1kBYlFnnazIIAgWYSJTsYigCCxyNNuFgQQJIsw0clYBBAkFnnazYJAUTfxlBtZyt1l5Y6vkg7Onk0OQrsuuXPtevtvLMmdbqckvUPtWBvtPkk7IcYn9Uj7LnW123cpL3XnnooR5NPDR19ufyyB1DQlkP26jlc3np5YJZF7pU9NV/0db0MF1PFd3rm765dvu+3xybFan42VtK3lZCt39L35uPy76hZziiWTpZum3i986Djbfc9lwoVIvm3IRPVtWyd3t78yZhWgmydtDOWpsN3yJT0vSJCvq0Y7QEOBbed3H5vKm/bL8UNydut1eT6lDZnYPpLYJHTpY21lihEkZuAOzqafXrX7fTixHttf/3b9ppWgXYbH1wkgyHUek57JxfXYBbZLxfJiwNQ0tjKIHEOnjlPbq+W4Yi7SYwdMLuK7pzpy6mU6bWqvFq6vktnGKO1I+0MX2pKHHDZ65jwEMbPxzulNTsPFraw2vbLerfUPUAm6dY+tLv2a2KMEOMVSEoVsu9cjXHfMCyyCzOOX5NG6YnDdMT88CDKfYXI16PWInnIl18GMOoQgGQXLp6vI4UPLXLb4i/TN9hWcS/P4ezlSngQBJVC8IFd/Scv9zJC8XGx7OVkDrVspz+qiNMa3nGKNM0q+hOs7+SJH9yXg5AcXuYMIEjkAIZqX91Xabzya6kQOExnzfgQxs8kqRya/7eMu8k4/yZ8AgvgzS/YIkwSyutjkSXZACXQMQRIIQsgudCXhumMe3eJfxZIJ4/PXU95ky/mLQDLWGr7pN2/aux/NCuLOipIVEkCQCoPOkN0JIIg7K0pWSABBKgw6Q3YngCDurChZIYHiX8WqMKaLDdn1Fb8QP+S32KA6DSFIBwhP/QiIJGOpXcb34y6bZvP7WP37zI96ihV78PsES919Ajl+ijiqIKvL9UUfI3tKJtBeTXIYZ1RBbj9/cREKkundctN+U7um8i6flu3WafqdKz0n75a3PTd9pN3Uhq0u0xhN+6e0YWrf1Iap/O1nr05MeUvsjyrI1QCbixADHZpAUya19KV7nAR1yiSR44bq8j0Plz5JXd3JJXV390nZseTLamgcY20M5XdZDJVp79s0q1/bz2M8jnoTTx3wx+MHG308dyu/5KGTecrkabevdc2tR04r5Ku80q+5dUmfJIWqy4eVtt1m5PLYp412fbdOX0Wfn9E7IEA+PHpw0mxWT9pweFw3AVk9Yp9eSQSSEEQ6giRCgSQEUpFD+pKMINIZJBEKdaeU5JBIJCWIdAhJhEKdKTU5JArJCaJTA1GURA3b5uLW6cv7KY40WUEUloiij5tNc08fs82bwO5TFNs3ikO+F5Y3EXoPAQhAAAIQgAAEIAABCEAAAhCAAAQgAIGpBP4HnxhDmx8q1qAAAAAASUVORK5CYII=;" vertex="1" parent="1">
          <mxGeometry x="235.25" y="136.5" width="40" height="40" as="geometry" />
        </mxCell>
        <mxCell id="Aw4LAdJU4ZUVSzUaRyW1-27" style="edgeStyle=orthogonalEdgeStyle;rounded=0;orthogonalLoop=1;jettySize=auto;html=1;exitX=0.5;exitY=1;exitDx=0;exitDy=0;entryX=0.5;entryY=0;entryDx=0;entryDy=0;strokeWidth=2;" edge="1" parent="1" source="Aw4LAdJU4ZUVSzUaRyW1-10" target="Aw4LAdJU4ZUVSzUaRyW1-1">
          <mxGeometry relative="1" as="geometry" />
        </mxCell>
        <mxCell id="Aw4LAdJU4ZUVSzUaRyW1-10" value="&lt;font style=&quot;font-size: 16px;&quot;&gt;Markdown文档&lt;/font&gt;" style="text;html=1;align=center;verticalAlign=middle;whiteSpace=wrap;rounded=0;" vertex="1" parent="1">
          <mxGeometry x="146.5" y="372" width="109.5" height="30" as="geometry" />
        </mxCell>
        <mxCell id="Aw4LAdJU4ZUVSzUaRyW1-13" value="&lt;font style=&quot;font-size: 24px;&quot;&gt;&lt;b&gt;数据处理流程&lt;/b&gt;&lt;/font&gt;" style="text;html=1;align=center;verticalAlign=middle;whiteSpace=wrap;rounded=0;" vertex="1" parent="1">
          <mxGeometry x="112" y="443" width="197" height="30" as="geometry" />
        </mxCell>
        <mxCell id="Aw4LAdJU4ZUVSzUaRyW1-28" style="edgeStyle=orthogonalEdgeStyle;rounded=0;orthogonalLoop=1;jettySize=auto;html=1;exitX=0.5;exitY=1;exitDx=0;exitDy=0;entryX=0.5;entryY=0;entryDx=0;entryDy=0;strokeWidth=2;" edge="1" parent="1" target="Aw4LAdJU4ZUVSzUaRyW1-17">
          <mxGeometry relative="1" as="geometry">
            <mxPoint x="199.25" y="517" as="sourcePoint" />
          </mxGeometry>
        </mxCell>
        <mxCell id="Aw4LAdJU4ZUVSzUaRyW1-14" value="&lt;font style=&quot;font-size: 16px;&quot;&gt;a. 元数据提取&lt;/font&gt;&lt;div&gt;&lt;font style=&quot;font-size: 16px;&quot;&gt;b. 数据修正与清洗&lt;/font&gt;&lt;/div&gt;" style="text;html=1;align=left;verticalAlign=middle;whiteSpace=wrap;rounded=0;" vertex="1" parent="1">
          <mxGeometry x="132" y="461" width="134" height="58" as="geometry" />
        </mxCell>
        <mxCell id="Aw4LAdJU4ZUVSzUaRyW1-15" value="" style="shape=image;verticalLabelPosition=bottom;labelBackgroundColor=default;verticalAlign=top;aspect=fixed;imageAspect=0;image=data:image/png,iVBORw0KGgoAAAANSUhEUgAAAMgAAADICAYAAACtWK6eAAAAAXNSR0IArs4c6QAAAERlWElmTU0AKgAAAAgAAYdpAAQAAAABAAAAGgAAAAAAA6ABAAMAAAABAAEAAKACAAQAAAABAAAAyKADAAQAAAABAAAAyAAAAACbWz2VAAASJklEQVR4Ae1dCXIkNw7ccey/BL9sMC9rzsu0mXJB5tR2dRdZJOvKjEDzBsAkUi15Hd4f/xFaMWCZo7wf0x/RWWjnZ9LCPk7/XlhL2Xzez6bVLWHgR8nmm+617N7Rz4s95rJth+qmKZu5qDgfa9MWNXMGJJB/GbGpyzYEEHPT0mWbhJuFgNinCWDgjgKx6eXZ3k0I09VXNwk7by2cOwjEpnL4iTb605SaSgZ+TecSWtplcUWBGF6Lxm8HtkJ/Bi4rmCsIxPD+NAkCJBwECXn8hrGlCYMZMMR7wD5lp+DA8U40oSMDBt8Sxfl/KDjekSY0YMDgQ6I4vyiWvukd70sTChgw7JUoriuKV2Lh2x8KR/oj3cDMTxhb4b4MxD8R8yNQsLdADCTQKIwrI725HP+JzzN8PJvM5izrX7FLsfieF9tLIIZLn/nbImWPFsWdz3F5PuZcb1gWIO9TaPk423aKLoVC+NfnwI/RAjHc7SzCSNM7UADRj3ZaOm1jyJwWOIuAEhLmezhsCEYJxHCbowojTUxfUQjT1VY3hp20wFGF8wsJpski11O2hqwfsM+DGHOh2WRohBUMGPb4ZEd5S+bBnE4LR+Z7k0kx0GwyNEIjBhx+aOR373dmHqeBI9M9CQtBnIawiyTKd6ft+faMf1gYMmNxjiaIMR1mMOEYDBjScNhe9cD4h4Ijm5HCIPE2GRrh4Aw48hstFsY8BEZdXKI4xHNvTsLh4XOQMdZuMEQecdEQxm4XVeAuDBi8OmxEDTHWUDii9byYRDH0OXcP1rueWKuMMQQs3l7ikDCGPOFhgzgyo/WqL/ruil7ikDC6PtspnTuy7iEU+u2CHuKQMLo81WWcOm5Cay0U1l1TtBaHhNH0eS7vzHFDWkuhNBNJS3FIGHhloZoBx8lDiaSlOHg5QQy0YMDhpJVQWONVcJxqkQQTMJggBloyYHDG2mpRow4/RXDs3iVwUZbaLAba/W1iJWS2EEdRwJLktFcMzBhwjLfW7GPmc3G4NRgD2aJ3LYiBPgwY3LL2tgjFcf4lHKtbAjBBQQzsycBWkdir5LeIw1851poYGMjAFpEs/pB3XKBWIDwriIEjMeBIprae7dlFah0uKu5ZEM2JgYEMsDZrRPJ/NW2VjhhcEANHZcCQWI1AeIZnv+Ho1Tiybw/qiIFjMmBIq6a2H/l1ahx47kB9MXBgBljsNTX+dSXbcvjLgz7EwLEZMKRXIxD7Cwd5uBT8Tz8KYuAsDCQkSisGBVIDrzmkM2JgRwZqfqh/fYOU5pxKD2i/GDgAAwk50ErwwW+Qj5IT2Mv/CrogBm7BQO3fILcgR5cUA7V/g4g5MXBGBkp/+6n6G6T0V7IzEqmcr8lAce3qG+SahaBbPWfAnk+/nq36H1Beu9SqGDgcA46Mimu99hvk5+Gur4TEQCcGilWFPHjGOuUjt2KgNQMGh1V1XvsNwgvoW4QsCGdgwLYkWaUsBOQ53xJYZ8XAAAYcMbbU+KbDDGwwQQwckQFDUlvEwbObHTzoRBADB2RgqziaCIROJJIDVsfNU2JNsja32mYHkQATEsTA3gwYEmAtRl1ubZs5YiJMTBADezFgCLxVEPPzzR0ygMMEMTCSAUOweXG3GHdxKpGMLA3F8k7iYB13E4hEQnaF3gw8EIC11su6Oc4T9t4syf/tGGBN5TXWqz8kCJPnhQQxsJUBg4MHrJcg5n6HBYrAjssJYqCGAcehqKNR7fCAcTFeVhADaxgwbHrAonZGtrsEzS/ouLggBp4xYJjcSxhRo7sLJBLxZwxp7pYMGG69tzCiLosF0jtxv2VJ6NIGChwWhXmUtjghXmLERRjDYMK1GTBcr/cPXYqNcRxWKrziAwwSGHExRzCacC0GDNcZUT+MwViEw4YKpDZoaZKxnxekCedkwJA2Czbes3friJXDMSiNWXyAQeZwTJQG3rqfMWnCsRkwpPeAbX3vkvOMx7hzOCZK/HBv8QEGWYJjoTSBFvsZlybsz4AhBdoD1uJtS30w7hIcC6X+ig8wyCs4FkuTaL2fOdCEMQwYwrAwaa3fcq0/xjbYKzgW1/qLfcUHGGQNHJsiyJ7tA3kwF5qwnQGDCxp5pe35tozNHAy2Bo5NpfkWH2CQEjg2lybVez9zohlMeM2AYZnGQqT1fpsS/458SuDYXOL/878l3iv3Mqmwn5U+Wh+LPKJNCJD/p/E5pt0JNl2W7UfWn7qHahKy+XtERiMEEvdwdBLMYFGY6B4ChixogcgvYWIuHO7h/BlhU9LRHl0Ic44TJn7B2A7BD0T5LIzEBL3wzLPt9BGF+Gz9DHNpSjIXEadift7nuCXsibOYi+Lnlphj/2xISJj8OmwrHA6Kam5PgcRlmTQf02B3Q1p5YVu570rbEi7DH8ZsW8HhqEggI3/FWrokkyb867PwAtOZszZ21sQ75p3gu7UwqtP9q/pk+4MOlzR+q5Eg4T4MJFyVb863/xuWYIfAEb5BnhHhmKTZZHf9FQzXvywSbhY/CNk/JI4qkCAroUMLODoSS7BxvjYh5cOLIqf16ALJc2Xfswn2JZaMkIN2E/I6lShyHs8mkDx3zwbRl2AyUnbqpikuRRH9aep8zZkFkrPt+QD9GEswM2I6DNPk8xKCmPNzFYHM7+WzCcOYJsGAhI1IOP8bxpZ2aVxVIPNHS5igBQwdWkDCCSb+bdPUDTFwGHPT0vWbuwhk/pJ8aNochgla4A7CSdNlby2EePB5e1eBzHmIcUKH9gw2TUbLIQVE2NfnsT5Slg6Ln0hfn/985P1sWt2cgSMIxJBQypM6aD9yjHYpTcsW8n42/d0NgX1PLHSiwJ8tp9nkfDxb1rCEgb0E4kjy2a8vvzCfJkNzSqQs67yfTat7JgY+kWyJ+YbLGc4+YO/iOfYIYqA1Aw6H72rvj/XR3yAUxxr8xKYP2N9rNmuPGOjFwF+9HD/x60/mXk0ZFmmCGNiNgVECcdyQ3wqlWPuNU+pX+8XAKgZGCWRVMgubbGFe02KgOwOjBMK/JwQxcDoGagRSU+y2gZktZzeE1dELMlBcuzUCqeEt1RzSGTHQmAEr9VcjEAYpDlSaWLY/ZX11xUAtA1578BMHS+1RGMwqYkROhaG0XQw8ZcAxGzVV0lYdYgCDleCBzSWJca+XBNBeMfCCgdLai/3FRRsHHy+SebZkmIyza1p/5kRzYqCCAceZNTX3bE/1QTozWAkMmx+wZ4nkc449ghhowYDDSV5bpf1NhxnMYKVwHHiW6APzBhPEQAsGDE6e1VnJ3GYHLOotMBymCWKgNQMlQljau1kgdLxVJK2JkT8xwJpcKvqS+SZOGJAJCWLgCAywFktE8GpvM0cMwsQEMbAXA4bArMFXBV+61tRZBGeighgYyYAhWNRfy7aLUyboMEEMjGDAEaSlKHJf3RxLJCNKQzEeHcXBGu4qkFCiM5AgBhoyYPAV9dWzHRKEF3CYIAa2MmBw8ID1FEXue1igCOq4nCAGahhwHIo6GtUODxgX42UFMbCGAcOmByxqZ2S7S9D8go6LC2LgGQOGyb2EETW6u0CYiE+GRhADX/9u3t7CqBZI78RdBXJbBgw3711fUfhr2+JvEMclaGsD1O5jDOH6DBiu+IDV1snac4zjFXGKE2OQwIiLOYLRhGsxYLjOiPphDMYiHLZWULGv+ACD5HAMwlnvlrFowjkZMKT9gPWuk/DviJXDMYi1tW3xAQaZwzGxNmCrfYxpMOHYDBjSe8BavftaP4w7h2Ni7fnYV3yAQZbgWAjHI1vGpQn7M2BIgfaAjayBiMW4S3AsxL61bfEBBnkFx+La4D32PRCfORhMGMOAIQx5p/V40zU+Gdtgr+BYXOMr31N8gEHWwLEpD7RX/4E8mIvBhDYMGNw4jNzu9a4RlzkYbA0cm+Lc2rb4AIOUwLF5bTIj9j2QD3OiCe8ZMGyhkTfaiDdaG8ORTwkcm9f6jn3FBxikBo5DEfRo7QO5MT+awe4Iw6VpDiMftKO9U+TD3GrgOBQ+VrX/rYlSeYbJJZjBfsKOBEMyNCLPLWGc/18wc0w7KyxLnP2Pacz+GZCQZPw/IQ/J9weiUEklYIJecmBhL33kxbiw7dDTCdnlAmKynAuk6HRsbeY7H59NALOrfA9DFOl7pq7jOFZUc3sKJK7IpPmQBrsL0oaL2oazZzqakGwIo1XeDkdFAhn5K9bSJZk04V+fhReYzpytsbMlPDDfhFithVGd/l/VJ9sfdLik8VuNBAn3YSDhqnxzvv3fsAQ7BI4kkJwQxyDIInHC9RhIuBLFEOboHw5H+BXrFSkJizSHEQ67298rvPdVkHCR+IHH/uFxdIHMCfRsgn2JJSPkoN2EvE4lipzHswkkz92zQfQlmIyUnbppintaUeS8nVkg+T08H6AfYwlmRkyHYZp8UhDRn6bO31xFIPOX8NlEjCWYGTEVw4Qzv2FsaZfGVQUyfzSfTRjGtICEE0z826apG2LgMOampes3dxHI/CX50LQ5DBO0wB2Ek6bL3loI8eDz9q4CmfMQ44QO7RlsmoyWQwqIsK/P432kLKVcAJzO17Jt6uYMHEEghoRSntRB+5FjtEtpWraQ97Pp724I7HviRYcFvoSULeT9bFrdWgY+cbDEvDZQds7Qf8DyuBw7TBADvRhwOM5rbk2/+ACDbAGF8C4x3xJAZ8XAAgOO+Xe198f66F+xGHwNfk6bfM1m7REDvRgY+S8reuElKBIrPKPtYqApA6ME4sg6vhVKLlBzpsS/9oqBlwyMEsjLJF4sGtZoghjYhYFRAvnY5XYKKgY2MkCBpEIfNcVuhTHy7VvO5n7UFwOltZtGfYMkvY0YOAADVppDjUAYpDhQaWLZ/pT11RUDtQxYxcHfFMirf4VhyWdpsF9LjlbMpxV7tEUMvGPA3m1YWufBzwpb8rc0/6iI4UvONC8GChmoqXGLGDWHPQ6vbA37SuL4Sr/aJgbeMeDYUFJ7sffb76PSgX17WNdxbIvgr1rmI4iBFgwYnLyqtaU1z4PXOqktZAZfSoy5CGKgFQNLdfZu3ucJvDuwtP6YOyoYG/Y6jC1NEAMtGWBtLtXtu/n/y8M3OONZQQwciQFHMu9EsLTOs0/xwOzSoXfz/tSjJsXAeAa21DHrfBGGlXdCeLXui561IAbGMLBVHP4uza0BeF4QA6MZMATcWru+JmkG+mxgDh+CGBjBgCFIi5qln1Vw7GoRkH4EMdCTAYfzXWp1t8A92ZTvyzBguMkDtos4gsVWCfASHk7VioGNDDjOtxDG5rq0honEhXg5QQzUMGA49IBFLW1t6asJWibFS3mTrOTkLgwYLtq6BpuJIx6hdYISSjCrdokBw0KPumsujrhAj2QllGBXbTBg6PSqtW7iiOR7JR5C8Qik9nYMGG7cs766iyNezNFhQfcyXoQxhHswYLgm37xXPdGvw4bCEa3nhcI34wjXY8BwpQcs3rlny1i7wBB11CUZx2HCeRkwpE4bWTOMtzscGfT8CTD3zXg04RwMGNIcJYqoFT8aNUxoNAkkgzEZ22DCMRgwpEHbqx4Y+7BwZMbC3csYnyaMZcAQjoLYQxRRa474p4Ej00h8r5aPxTxoQlsGDO4cRo73et+IyxwM1hw/mnv806FPw59/Tu86iv/KY0IWNOE9AzZtiXeM8fuTfXckuOd7su2C3gKJpB2dIDfmjtImJPJ7SoZ92l1h08XZfmT9qXuYJiGTrsKIm44SSMRzdI4qlMgx2oROLhzOc+4KsOkSbI8shCnN7yahN0QYEXG0QCKuo8OHMdgZkaakQ0Acxty8z/Eo2CwQxyEALnF8RiQkPVQYQdJeAon4PnXO8q0SeZe2aeFALrCFLX8U+LM99mzyInMJ99hFGEfkz5HUp+z2HDxQA6wFYYEBxzxNYrkXBxSGwYQCBhx7aRLLNTmQKFDcreBwREIllnNzcCpR7P1Heq14KBbi5z+NPg/OQEJ+/GObSF+fJ/k4q0Byeg0D2sfUohF2ZiBN8U//T6CuIJB5Lfg0IcHMmek3TpPrU35LvKLligKZ39cwQZNgQEIjJPj5DWNLuyzuIJD54xkmaIRE8w8Prz4TFkMM3MfxbXBHgSw9rmGBRtxROOnr5if9Y3rKvXkjgbyn1KYt0XJ4NgElJj0h/zbgVJrm1TxhQAJ5QkrFlGVn8j6nKaYl2NLCbD7NxvmQBR9I0Zna+Xi2rOE7Bv4H9pFo9MG38/MAAAAASUVORK5CYII=;" vertex="1" parent="1">
          <mxGeometry x="118.75" y="557" width="60" height="60" as="geometry" />
        </mxCell>
        <mxCell id="Aw4LAdJU4ZUVSzUaRyW1-16" value="&lt;font style=&quot;font-size: 16px;&quot;&gt;数据分类存储&lt;/font&gt;" style="text;html=1;align=center;verticalAlign=middle;whiteSpace=wrap;rounded=0;" vertex="1" parent="1">
          <mxGeometry x="178.75" y="575" width="108" height="30" as="geometry" />
        </mxCell>
        <mxCell id="Aw4LAdJU4ZUVSzUaRyW1-29" value="&lt;font style=&quot;font-size: 16px;&quot;&gt;定期更新机制&lt;/font&gt;" style="text;html=1;align=center;verticalAlign=middle;whiteSpace=wrap;rounded=0;" vertex="1" parent="1">
          <mxGeometry x="146.5" y="94" width="115" height="30" as="geometry" />
        </mxCell>
        <mxCell id="Aw4LAdJU4ZUVSzUaRyW1-30" value="" style="shape=image;verticalLabelPosition=bottom;labelBackgroundColor=default;verticalAlign=top;aspect=fixed;imageAspect=0;image=data:image/png,iVBORw0KGgoAAAANSUhEUgAAAOUAAADICAYAAAAX+yb+AAAAAXNSR0IArs4c6QAAAERlWElmTU0AKgAAAAgAAYdpAAQAAAABAAAAGgAAAAAAA6ABAAMAAAABAAEAAKACAAQAAAABAAAA5aADAAQAAAABAAAAyAAAAACnRqx9AAARR0lEQVR4Ae2dWXLdvBGFJVf2ZbiSJSXP1v+cLCkpUytTcGi0C6I4YGiADfDcKhkcMPVBf0CTl7x+eeGHClABKkAFqAAVoAJUgApQASpABagAFaACVIAKUAEqQAWoABWgAlSAClABKkAFqAAVoAJUgApQASpABagAFaACVIAKUAEqQAWoABWgAlSAClABKkAFlBV4Va6P1VUo8I9/f7iouPt4ffke7cebcT45vsgG0tePl/d4328v//3X67I5xl2DChDKmwYlABiD5zp1ZUE7EbSEtZPwqc0QylSlKvLJCuhXvp+hGldRXZOiHtK/QsWEtInC6ZUSynStsnICxAChyypoJLNA6kPeNyNdekw3CKXiUI8O4okUC8JdAnqikOIpQlkp5sQg7irDFXRXFtWDhLJQzqfBuCcTAOXquadM3TFCmaEfQPTZ5Voxo+TcWbl66o4voUzQk6tigkg+C1fONJ2uchHKC4X+/p+PXz6Lu8jG00EBglnvCoTyQEO/Or5F3yse5OLhPQU8mD/49NCeMmnH/paW7Tm5BMaP55isbmmYzBb1ih9SIVfKMNC8btT1eK6W5Xp+Ky86T8mwOvLaUXdInW51z6nt0eGrrI4+VKUDPcfnzVv6WCjl2tHgCC3SJx8CvvvtP/s4fnQDBRMMzkcfh21/ffc9HFv3wzYTwwo87ppSVkc/Js7AuCzoA75GQHoEHM5pfAK4TupqeXf5f/98fZxvia616aOEC0Di2vGuz4KGAWFrAFMNFFDDiupSy53lC/a9neXhuWMFHhO+eue763vH9Q0LPwQm31MMk8MiLgKdsN1yFZW2mO4r8IiV8o6nckJIahLEfVf4ejRMZLgmdV/P7h/hKrmvS87RqaFEaOZn/J7hKlZFM6FpjiOc5YWO/jy0/HmSb0rbT+xtdmpaKDsD+RiHxOoJbwzXoKtjzjgRrYbd9M+UUHYE8jEw3uSfj2x2Oigxk1+EWRoDTRg1VGQduwpMBWUHIAnjrhvxoKYC00DZGkjeVdR0O9Z1psAUUDYGkqvjmQfxnLoCw0PpgWz2tYdfHfmyrrrLscIrBYZ+dashkFgdCeSV9/B8EwWGfsyuxYMBvHZs4mesNEOBYVfK8OhchqnXWQnktUbM0V6BIVfK9cZOxvOYKTIyXE1RiXl6KDDcjZ4Gd1p5d7WHpym1gfsIoao19W+5vIX9aZKhoGwBpH8Z98c0ozmxIWHsd99YwWWHN33oN3LioRsKSn8d+RF3vnJ7IZCVCnYqnvrq3Sz3BIa50YOZUssHMHgEUkvNtvWEcXcpreCZZ58/KW9KfXflGQLKELqcvcuXox/CnLecAsx7jwIl497hZYTmYpiHEjOfotAMWZu71O0NOMB8ey8qOmAeSm+bq7AvLkogYzUG2C6djEcPY01DWRK+HPkaryGPlLF5HBFSTc9Kga5pU6usaSi1hA23zLU0Yz1jKDBsGGsWSq3rglluk4/BgV4vNX4Xd9Qw1iSUWmErgdSD5Kaaltp2taKt2n7klDcJpZKQ/OojxxMM5lW67EAY6wyad9glc1Bqhq2HVvPEEApsf729tNNKk3xp89nlzEGpIWAIW5dsNVjAnAJPXC1NQam0SjJsNYdWeYewWmqAqTHZl1uRV9IUlBrCaQxgnoTM3VqB8FjkUtnOMNeWZqDUWCUZtla6reHiGpOtxqTfQyIzr25pvJbln9oxY0+PwXtaG5i4a8HycJv/QTQTK6XWKvk0J32avSGMrTK7FuqqxhMLm4DSC4U3yos/IWx9K66ABYdRACtdZWddZfnmxW+H0q+SEAl//FCBSwW0vru8bOjGDLu/ZhdAQbdc6FvL3z+RNkJTeUnJKgn74jDG1/GOVjXCo7zeM3eJAhhzP36upOwIZT7dGImc9YvBEMIbpA5n7Q0e36/kC3dv3+mNAthIMEdw25eX1N/t2bHG/Hu1f8LX4LC/vBFux5AXrCz+7xfy7Z0vOVZbV4BoSWn7CkjUARvDYKdUyTw3KhAWiewe+HJrVJRdsGOBFcoUh5U+wXFrYYrqqrrBI/VcpTn2+bocwbxS9P7zpdeWI0RCK5QALUdmRTBdTrvbvCkCZwIpTQzz9Id0+Ilp7mqZm/8uTb95p3UljdeCWbvapghcCOQqR+5EVaIhy9QpgNXS+8EPX8tyVRPypUziV/X0OI+V0pU2VAOmL1sVul4JXANkqR4s118BgInfXwqT9LLpwfowO570Qr7NObO7u1+J5PQ2gFnydYLLaSfOe7VKEshYrWdsX03SI6mAlXKp7XDuilkbup71VwtID775u3RnOvDcuAqsN3o0up8LZk2bR7OiFpA1fWNZKlCrwLcQay+1FaF8KpjIV9reUeiqDeQR+KX9ZjkqkKrAulIeOXpqJXG+KzA9PC7Or7GtDaSmHhr2sY5nKbBCidVS0xEvwHQ1Em9XsBZAbtuo6S/LUoFcBf5cU8IRO4KZ2881/7Z/BLJIRhYyrsAfKNHPHmDWXE/GWhLIWA1uz6TAJyhhWA8wKwRcUJZAVijIouYVeD3qYQvH920tfqX8ddTm1XE8mdGiX7yGvFKe53sqcAglOqENgK9y8X/O/5V8cDPqXSv8RQdwjUogS4aCZVoqcAolGm4AZkt7kusmkMlSMWNnBS6hRH9mA5NAdvYyNpelQBKUqHEWMAlkln8Mndn7rAsGSIpd9Z+0CW2oJclQosXRwSSQan5jvqIzX7XuB1lQjgym9YEw7+UDdTD1R7W8T+DF58WaadlQwoCzWciagegPgbQ4Km36lAqktG4RzCIoYdAoYBJIcb/501wgRRFrYBZDCYOsg0kgxe3mT0uBFGUsgVkFJQyyCiaBFHebP60FUhSyAmY1lDDIGpgEUtxs/lQLSFHKApgqUMIgK2ASSHGv+VNtIEWxu8FUgxIG3Q0mgRS3mj9tBaQodyeYqlDCoLvAJJDiTvOnrYEUBe8CUx1KGNQbTAIpbjR/2gtIUfIOMJtACYN6gUkgxX3mT3sDKYr2BrMZlDCoNZgEUtxm/vQuIEXZnmA2hRIGtQKTQIq7zJ/eDaQo3AvM5lDCIG0wCaS4yfypFSBF6R5gdoESBmmBSSDFPeZPrQEpircGsxuUMKgWTAIpbjF/ahVIUb4lmF2hhEGlYBJIcYf5U+tAygi0ArM7lDAoF0wCKW4wfzoKkDISLcC8BUoYlAomgZThnz8dDUgZEW0wb4MSBnkwXfgdVycGRil+5xW/y7pEx7g5qQKjAinDoQnmrVCKQYDTb+MPnwX/EEao8IzP6EDKKGmBaQJKMYrp8xSYBUgZOQ0wv/wHP1I5UyrQWgFtIAFE6z5f1Y//KydEfldZD88TykNpeKKlAo2AdC37nFp3LZiEMlVp5lNToAWQCvcgFm8g/lQ+NWASSpUhYCWpCrQE0oPwPbUf23w+9H33/9Uiwt9le650vxRMQlmqOMtlK9ASyNAZl92pTQELYBLKzaBwt40CHYCs7fgiFdwNJqGUkWDaTIEeQOIJsRoDttekd4JJKGtGkmUvFegBJDpRcz3piy+oY/u5C0xCuR0J7qspEFYvp1XhxRfzxe3gJs9RHxuA+fOoLTlOKEUJpuoKVK5en/pzBmRt6OobWj41ttlRBtNtqv+ySyi/SMIDigo4jbrOgNSof3s9uVenJphXT/wQyr0R4LFqBa4cL7WBFCD9inwZEh615+v/6+jc9rgimG5bd7xPKGM1uG1KgRQgFULXLJsVwTxs9/XwzI0nMMtGs5/zXcG7levFuA813m7sGpvOUMDfef3IyP4pawqQKFB7d9dDVsRATbtXthV16JN6yjuY+SIgd2v3RuHl57fdkzxoRoFSx71yWjEwTN6/ZL8gXcLKV1C0fEK4mghMha8pQEI9QIsBKVKShbopgMkzt7FUIEO9Lrf+OL9va42+4mM52yWhbIomZlbKVCBj0TIHMC7K7U4K5Ixr7njWhMcw/2rFSpUoNSIAkCkRnpmV8ipk3ROopMxePTzWTgE4YcLqgDDy1eddUnsC2FPz7uVL6NNesd1jWDGv6ksFEg2YWClzZtOtKt7YHzmDuS3P/X4KCEh+Mv0urQZnXWQ/Na1dJXMgSe0T8gVfrrJveCi9DlUX6zmCM68NBWomcbFAK3SV+jRTE+FrPHMWGOf8ILmCciwyqAK1ly1YJS2bbgLKWoFqB6m2fZbvp4CEwDUtptxsqam/tqwJKBVmLq6WtZ4wSPnaCVjB15orZQJKjRs1frBqvkRuLjQbqFdAY5Ws70X7GkxAGcxcas19yqDV6jRieYytxippPXTF2JiBUiOsqB20EZ31KX1+0tiagTKEsEutk4WnK2qrYXlDCmhEQJj0R1glIbsZKNEZjdXSV4ObPm+oj5/xFfBjGb8xNL5BCRaYglJrtUSog8FMsJ9ZjCugEbaOtEpiOExBiQ7hOUKktR8/mLwbWyvizeVDxOMUurEo1NGtCnNQwnKlMFZegO0mJhvSUwBAKq6Si17P2tdk4tnXPTNTX4fZKxsfGy10ifv+1O1wHakS6Vh+xvVofE2ulOis1mrJ68ujobd7XOvSQ8uHeitlFkqtmz4QVCMM6j0wT21P6yutkSMks+GrOGXte3NSj0/5ilckhsVNretI2DZi2CpjYnallA76GU/lbqyvz2nNwtI3pnoKaAI5atgqappfKdFRzQHz1XHFlNE3knJ8Pw/EEFCiy1p3Y4P5BPOzH9y2pwzk0GGrDIL58FU6qhySMJQVYW9MtYFU9pHblBkGStyNVRadYN7mduqXJOtXaKM8cH4l+zDhqxiiHMaiWoayIm6nVHuFnG0Mh4MSftMATMy0/KnKDlC2GLuRv/7Yk3yY8DXuvHIYu1aNp0gwg8ftcFtPAa8tLhc+fI1Or9b1ya8fmvVZqGtIKMP1pfpghEfy3iwMzEx9COGqyrOssS6YnMOTX/Hh4beHDF9F9QbXJlI1w9k/StRttBqjAORbXe9slh4aSkjaatBR98wDD/tafvy4yC8GOO12Zh+X4aHEgBNMbbevq4/jUaffFFBCgpaOgPpnn51hY+2n5eqIvj1lDKaBEoPWGswnOQZsTf20hhH9eAqQq62pwo+SrxeY0GOWJ0hqxraX3k/SeqqVUpyrh6OgLczePllmvC0vWh6lPTV+EpDQe0ooYVgvp1lFHOiHftHf0o/X1Pmycle1tJrkck8KWWNRpoUSRvYEE+2FlXO6sBYwhp9UcbCzx+epQELbqaGEgXc41Crs79B2aEBv1O7RzyFPDyUAwaf3qvm71d//jnTteReIQS++seOFeAyUGPQ7wRSn84C+Y9vKzQtA6LuD8PQ7Uv93y+fJ4epW8EdBCeMNgLkdgyWA2uUurhUIYxEIZKzGw1bK2HSDcMbdE1A/HZOdva9gAmySRVJZAbHv5KChFHZO+aZHjcaPWyljsYyDGXd1um2ujsdD+mgoRRbCKUp0Sbk6XshMKINABPPCUxROc3VME5FQbnQinBtBdHa5OmboSCgPxCKcB8LkHSaMeXqtuQnliWgAE6fDI2YnOXlqowBh3AiSs0soE9XiypkkFGFMkuk8E6E81+fLWcL5RRIcIIy7spQdJJRlull8MqjQkvJiuJvqS3d5Eqm8l+OVJJSVY/bA606uipU+c1WcUF4plHF+YkAJYoYf1GYllLUKHpSfAFCCeDC2rQ8TytYK+/o9oM4n+LP89coKIfq498A7jvPTRwFC2UfnT61sIO39HuMinQk3agihCGIkJZRGBgLdCLBi0+EffMLLx793ouNyIEqXaHvd9NC9h2PrOa6AW4W4TwWoABWgAlSAClABKkAFqAAVoAJUgApQASpABagAFaACVIAKUAEqQAWoABWgAlSAClABKkAFqAAVoAJUgApQASpABagAFaACVIAKUAEqQAWoABWgAg9R4P+/iozLsLOMQAAAAABJRU5ErkJggg==;" vertex="1" parent="1">
          <mxGeometry x="164.03" y="25" width="90.46" height="79" as="geometry" />
        </mxCell>
        <mxCell id="Aw4LAdJU4ZUVSzUaRyW1-35" value="&lt;font style=&quot;font-size: 30px;&quot;&gt;&lt;b&gt;多源专业知识库构建&lt;/b&gt;&lt;/font&gt;" style="text;html=1;align=center;verticalAlign=middle;whiteSpace=wrap;rounded=0;" vertex="1" parent="1">
          <mxGeometry x="60.129999999999995" y="634" width="277.75" height="31" as="geometry" />
        </mxCell>
      </root>
    </mxGraphModel>
  </diagram>
</mxfile>
